<?xml version="1.0" encoding="iso-8859-1"?>
<!-- Generator: Adobe Illustrator 19.0.0, SVG Export Plug-In . SVG Version: 6.00 Build 0)  -->
<svg version="1.1" id="Capa_1" xmlns="http://www.w3.org/2000/svg" xmlns:xlink="http://www.w3.org/1999/xlink" x="0px" y="0px"
	 viewBox="0 0 512 512" style="enable-background:new 0 0 512 512;" xml:space="preserve">
<circle style="fill:#AF4E42;" cx="36.589" cy="275.965" r="33.799"/>
<path style="fill:#C76D5F;" d="M234.674,382.651c0-60.988-51.282-110.605-114.317-110.605S6.04,321.664,6.04,382.651H234.674z"/>
<circle style="fill:#E6B09C;" cx="216.585" cy="382.65" r="24.125"/>
<path style="fill:#FFC4B0;" d="M216.588,382.213c-0.195-40.306-42.243-67.208-78.951-50.562c-2.773,1.258-5.286,2.564-7.482,3.807
	c-6.084,3.441-13.511,3.441-19.595,0c-2.197-1.242-4.71-2.549-7.483-3.807c-36.708-16.646-78.756,10.255-78.951,50.562
	c-0.001,0.146-0.001,0.293-0.001,0.439c0,51.098,43.084,92.521,96.232,92.521s96.232-41.423,96.232-92.521
	C216.589,382.505,216.588,382.359,216.588,382.213z"/>
<path style="fill:#E6B09C;" d="M44.728,382.651c0-0.146,0-0.293,0.001-0.439c0.136-28.198,20.758-49.831,45.704-54.586
	c-25.279-4.84-50.53,8.745-61.115,31.364c-1.499-0.305-3.215-0.463-5.193-0.463C10.8,358.527,0,369.328,0,382.651
	c0,13.324,10.8,24.125,24.124,24.125c1.16,0,2.228-0.117,3.219-0.329c10.923,39.566,48.424,68.725,93.013,68.725
	c3.481,0,6.917-0.182,10.302-0.528C82.356,469.701,44.728,430.402,44.728,382.651z"/>
<path style="fill:#333E40;" d="M277.326,147.433c0-60.988,51.282-110.605,114.317-110.605S505.96,86.446,505.96,147.433H277.326z"/>
<path style="fill:#283234;" d="M407.096,37.842c-5.055-0.664-10.212-1.015-15.453-1.015c-63.035,0-114.317,49.618-114.317,110.605
	h30.905C308.231,91.515,351.343,45.163,407.096,37.842z"/>
<circle style="fill:#E6B09C;" cx="487.873" cy="147.429" r="24.125"/>
<path style="fill:#FFC4B0;" d="M295.412,146.994c0.195-40.306,42.243-67.208,78.951-50.562c2.773,1.258,5.286,2.564,7.482,3.807
	c6.084,3.441,13.511,3.441,19.595,0c2.197-1.242,4.71-2.549,7.483-3.807c36.708-16.646,78.756,10.255,78.951,50.562
	c0.001,0.146,0.001,0.293,0.001,0.439c0,51.098-43.084,92.521-96.232,92.521s-96.232-41.423-96.232-92.521
	C295.411,147.287,295.412,147.141,295.412,146.994z"/>
<path style="fill:#E6B09C;" d="M316.014,147.433c0-0.146,0-0.293,0.001-0.439c0.136-28.198,20.758-49.831,45.704-54.587
	c-25.35-4.853-50.671,8.821-61.203,31.552c-1.504-0.421-3.194-0.651-5.105-0.651c-13.323,0-24.125,10.8-24.125,24.124
	s10.8,24.124,24.125,24.124c1.16,0,2.237-0.087,3.243-0.244c10.953,39.523,48.431,68.641,92.989,68.641
	c3.481,0,6.917-0.182,10.302-0.528C353.643,234.483,316.014,195.185,316.014,147.433z"/>
<g>
	<path style="fill:#3A484A;" d="M74.173,394.296c-4.267,0-7.726-3.459-7.726-7.726v-7.748c0-4.267,3.459-7.726,7.726-7.726
		s7.726,3.459,7.726,7.726v7.748C81.899,390.836,78.44,394.296,74.173,394.296z"/>
	<path style="fill:#3A484A;" d="M168.95,394.296c-4.267,0-7.726-3.459-7.726-7.726v-7.748c0-4.267,3.459-7.726,7.726-7.726
		s7.726,3.459,7.726,7.726v7.748C176.676,390.836,173.217,394.296,168.95,394.296z"/>
	<path style="fill:#3A484A;" d="M120.356,400.022c-7.29,0-14.142-3.057-18.8-8.386c-2.808-3.213-2.48-8.094,0.732-10.902
		c3.213-2.807,8.094-2.48,10.902,0.733c1.723,1.972,4.335,3.102,7.165,3.102c2.831,0,5.442-1.131,7.166-3.102
		c2.808-3.212,7.689-3.541,10.902-0.732c3.213,2.808,3.542,7.689,0.732,10.902C134.498,396.966,127.647,400.022,120.356,400.022z"/>
</g>
<path style="fill:#49C3E0;" d="M433.578,274.441h-57.854c-43.311,0-78.421,35.111-78.421,78.421l0,0
	c0,14.587,3.996,28.236,10.933,39.935l-0.018-0.01l-36.741,20.953c-8.367,4.772-4.981,17.544,4.651,17.544h157.45
	c43.311,0,78.421-35.111,78.421-78.422l0,0C512,309.552,476.889,274.441,433.578,274.441z"/>
<g>
	<path style="fill:#EFEDEE;" d="M455.414,327.826H349.412c-4.267,0-7.726-3.459-7.726-7.726c0-4.267,3.459-7.726,7.726-7.726
		h106.003c4.267,0,7.726,3.459,7.726,7.726C463.141,324.367,459.681,327.826,455.414,327.826z"/>
	<path style="fill:#EFEDEE;" d="M455.414,360.589H349.412c-4.267,0-7.726-3.459-7.726-7.726s3.459-7.726,7.726-7.726h106.003
		c4.267,0,7.726,3.459,7.726,7.726S459.681,360.589,455.414,360.589z"/>
	<path style="fill:#EFEDEE;" d="M411.526,393.352h-62.115c-4.267,0-7.726-3.459-7.726-7.726c0-4.267,3.459-7.726,7.726-7.726h62.115
		c4.267,0,7.726,3.459,7.726,7.726C419.253,389.893,415.793,393.352,411.526,393.352z"/>
</g>
<g>
	<path style="fill:#3A484A;" d="M439.887,159.077c-4.267,0-7.726-3.459-7.726-7.726v-7.748c0-4.267,3.459-7.726,7.726-7.726
		c4.267,0,7.726,3.459,7.726,7.726v7.748C447.614,155.618,444.154,159.077,439.887,159.077z"/>
	<path style="fill:#3A484A;" d="M345.111,159.077c-4.267,0-7.726-3.459-7.726-7.726v-7.748c0-4.267,3.459-7.726,7.726-7.726
		s7.726,3.459,7.726,7.726v7.748C352.837,155.618,349.378,159.077,345.111,159.077z"/>
	<path style="fill:#3A484A;" d="M391.643,164.804c-7.29,0-14.141-3.057-18.8-8.385c-2.808-3.213-2.481-8.094,0.731-10.902
		c3.212-2.808,8.093-2.481,10.902,0.731c1.724,1.972,4.335,3.103,7.166,3.103c2.831,0,5.442-1.131,7.166-3.103
		c2.808-3.213,7.689-3.541,10.902-0.732c3.213,2.808,3.541,7.689,0.732,10.902C405.785,161.748,398.932,164.804,391.643,164.804z"/>
</g>
<path style="fill:#3AC7B4;" d="M78.422,39.223h57.854c43.311,0,78.422,35.111,78.422,78.422l0,0
	c0,14.587-3.996,28.236-10.933,39.935l0.018-0.01l36.741,20.953c8.367,4.772,4.981,17.544-4.651,17.544H78.422
	C35.111,196.066,0,160.956,0,117.645l0,0C0,74.334,35.111,39.223,78.422,39.223z"/>
<g>
	<path style="fill:#EFEDEE;" d="M162.588,92.609H56.586c-4.267,0-7.726-3.459-7.726-7.726c0-4.267,3.459-7.726,7.726-7.726h106.003
		c4.267,0,7.726,3.459,7.726,7.726C170.315,89.15,166.855,92.609,162.588,92.609z"/>
	<path style="fill:#EFEDEE;" d="M162.588,125.371H56.586c-4.267,0-7.726-3.459-7.726-7.726s3.459-7.726,7.726-7.726h106.003
		c4.267,0,7.726,3.459,7.726,7.726S166.855,125.371,162.588,125.371z"/>
	<path style="fill:#EFEDEE;" d="M162.588,158.134h-62.115c-4.267,0-7.726-3.459-7.726-7.726c0-4.267,3.459-7.726,7.726-7.726h62.115
		c4.267,0,7.726,3.459,7.726,7.726C170.315,154.674,166.855,158.134,162.588,158.134z"/>
</g>
<g>
</g>
<g>
</g>
<g>
</g>
<g>
</g>
<g>
</g>
<g>
</g>
<g>
</g>
<g>
</g>
<g>
</g>
<g>
</g>
<g>
</g>
<g>
</g>
<g>
</g>
<g>
</g>
<g>
</g>
</svg>
