<?xml version="1.0" encoding="iso-8859-1"?>
<!-- Generator: Adobe Illustrator 19.0.0, SVG Export Plug-In . SVG Version: 6.00 Build 0)  -->
<svg version="1.1" id="Capa_1" xmlns="http://www.w3.org/2000/svg" xmlns:xlink="http://www.w3.org/1999/xlink" x="0px" y="0px"
	 viewBox="0 0 511.999 511.999" style="enable-background:new 0 0 511.999 511.999;" xml:space="preserve">
<path style="fill:#BAB8B9;" d="M228.935,269.061v41.212c0,14.946,12.116,27.062,27.062,27.062c14.946,0,27.062-12.116,27.062-27.062
	v-41.212L228.935,269.061L228.935,269.061z"/>
<path style="fill:#A19FA0;" d="M249.308,310.273v-41.211h-20.372v41.211c0,14.946,12.116,27.062,27.062,27.062
	c3.605,0,7.041-0.711,10.186-1.989C256.288,331.321,249.308,321.614,249.308,310.273z"/>
<path style="fill:#FFCD38;" d="M255.998,59.39c-48.42,0-87.672,39.252-87.672,87.672c0,58.819,43.545,70.366,43.545,97.071
	l44.127,15.64l44.127-15.64c0-26.704,43.545-38.252,43.545-97.071C343.67,98.641,304.419,59.39,255.998,59.39z"/>
<path style="fill:#EBAF03;" d="M232.244,244.132c0-26.704-43.545-38.252-43.545-97.071c0-44.972,33.868-82.014,77.486-87.064
	c-3.344-0.387-6.738-0.608-10.186-0.608c-48.42,0-87.672,39.252-87.672,87.672c0,58.819,43.545,70.367,43.545,97.071l44.127,15.64
	l10.186-3.61L232.244,244.132z"/>
<path style="fill:#333E40;" d="M503.306,422.874c0-58.75-49.401-106.547-110.123-106.547c-60.721,0-110.122,47.796-110.122,106.547
	H503.306z"/>
<path style="fill:#283234;" d="M408.463,317.357c-4.995-0.674-10.094-1.03-15.279-1.03c-60.721,0-110.122,47.796-110.122,106.547
	h30.558C313.619,369.14,354.947,324.576,408.463,317.357z"/>
<path style="fill:#C76D5F;" d="M228.937,422.874c0-58.75-49.401-106.547-110.123-106.547c-60.721,0-110.122,47.796-110.122,106.547
	v39.37c0,13.858,11.234,25.091,25.091,25.091h170.061c13.858,0,25.091-11.234,25.091-25.091v-39.37H228.937z"/>
<path style="fill:#AF4E42;" d="M39.25,462.244v-39.37c0-53.734,41.328-98.297,94.843-105.517c-4.995-0.674-10.094-1.03-15.279-1.03
	c-60.721,0-110.122,47.796-110.122,106.547v39.37c0,13.858,11.234,25.091,25.091,25.091h30.558
	C50.484,487.335,39.25,476.101,39.25,462.244z"/>
<g>
	<circle style="fill:#E6B09C;" cx="211.513" cy="422.877" r="23.24"/>
	<circle style="fill:#E6B09C;" cx="485.886" cy="422.877" r="23.24"/>
</g>
<path style="fill:#FFC4B0;" d="M211.514,422.451c-0.187-38.827-40.693-64.742-76.055-48.707c-2.671,1.211-5.092,2.47-7.208,3.667
	c-5.861,3.315-13.015,3.315-18.876,0c-2.117-1.197-4.537-2.456-7.208-3.667c-35.362-16.035-75.866,9.88-76.055,48.707
	c-0.001,0.141-0.001,0.282-0.001,0.423c0,49.222,41.503,89.125,92.701,89.125s92.701-39.903,92.701-89.125
	C211.515,422.733,211.514,422.592,211.514,422.451z"/>
<path style="fill:#E6B09C;" d="M46.485,422.874c0-0.141,0-0.282,0.001-0.423c0.131-27.069,19.858-47.855,43.775-52.534
	c-24.511-4.826-49.047,8.365-59.231,30.345c-1.443-0.406-3.071-0.628-4.917-0.628c-12.835,0-23.24,10.404-23.24,23.239
	c0,12.835,10.404,23.24,23.24,23.24c1.119,0,2.155-0.085,3.123-0.237c10.55,38.073,46.654,66.124,89.578,66.124
	c3.443,0,6.84-0.186,10.186-0.538C82.596,506.585,46.485,468.786,46.485,422.874z"/>
<path style="fill:#FFC4B0;" d="M485.883,422.451c-0.187-38.827-40.693-64.742-76.055-48.707c-2.671,1.211-5.092,2.47-7.208,3.667
	c-5.861,3.315-13.015,3.315-18.876,0c-2.117-1.197-4.537-2.456-7.209-3.667c-35.362-16.035-75.866,9.88-76.055,48.707
	c-0.001,0.141-0.001,0.282-0.001,0.423c0,49.222,41.503,89.125,92.701,89.125s92.701-39.903,92.701-89.125
	C485.884,422.733,485.884,422.592,485.883,422.451z"/>
<path style="fill:#E6B09C;" d="M320.854,422.874c0-0.141,0-0.282,0.001-0.423c0.131-27.069,19.858-47.855,43.775-52.534
	c-24.511-4.826-49.048,8.365-59.232,30.346c-1.441-0.407-3.068-0.63-4.916-0.63c-12.835,0-23.24,10.404-23.24,23.239
	c0,12.835,10.404,23.24,23.24,23.24c1.12,0,2.156-0.085,3.123-0.237c10.55,38.074,46.654,66.124,89.578,66.124
	c3.443,0,6.84-0.186,10.186-0.538C356.965,506.585,320.854,468.786,320.854,422.874z"/>
<g>
	<path style="fill:#3A484A;" d="M74.176,434.288c-4.22,0-7.64-3.421-7.64-7.64v-7.464c0-4.219,3.419-7.64,7.64-7.64
		c4.22,0,7.64,3.421,7.64,7.64v7.464C81.815,430.868,78.396,434.288,74.176,434.288z"/>
	<path style="fill:#3A484A;" d="M165.851,434.288c-4.22,0-7.64-3.421-7.64-7.64v-7.464c0-4.219,3.419-7.64,7.64-7.64
		c4.22,0,7.64,3.421,7.64,7.64v7.464C173.49,430.868,170.071,434.288,165.851,434.288z"/>
	<path style="fill:#3A484A;" d="M118.813,439.804c-7.079,0-13.734-2.969-18.259-8.146c-2.777-3.177-2.452-8.003,0.725-10.78
		c3.177-2.776,8.002-2.452,10.78,0.725c1.623,1.856,4.084,2.92,6.753,2.92c2.671,0,5.133-1.064,6.754-2.92
		c2.778-3.178,7.604-3.501,10.78-0.724c3.177,2.777,3.502,7.603,0.725,10.78C132.548,436.835,125.893,439.804,118.813,439.804z"/>
	<path style="fill:#3A484A;" d="M348.182,434.288c-4.22,0-7.64-3.421-7.64-7.64v-7.464c0-4.219,3.419-7.64,7.64-7.64
		c4.22,0,7.64,3.421,7.64,7.64v7.464C355.822,430.868,352.402,434.288,348.182,434.288z"/>
	<path style="fill:#3A484A;" d="M439.857,434.288c-4.22,0-7.64-3.421-7.64-7.64v-7.464c0-4.219,3.419-7.64,7.64-7.64
		c4.22,0,7.64,3.421,7.64,7.64v7.464C447.497,430.868,444.077,434.288,439.857,434.288z"/>
	<path style="fill:#3A484A;" d="M393.183,439.804c-7.079,0-13.734-2.969-18.259-8.146c-2.777-3.177-2.452-8.003,0.725-10.78
		c3.177-2.776,8.002-2.452,10.78,0.725c1.623,1.856,4.084,2.92,6.753,2.92c2.67,0,5.132-1.064,6.755-2.921
		c2.779-3.177,7.602-3.501,10.78-0.722c3.176,2.777,3.501,7.603,0.723,10.78C406.916,436.836,400.262,439.804,393.183,439.804z"/>
</g>
<path style="fill:#A19FA0;" d="M300.125,275.412l-44.127-15.64l-44.127,15.64c-8.638,0-15.64,7.002-15.64,15.64l0,0
	c0,8.638,7.002,15.64,15.64,15.64h88.254c8.638,0,15.64-7.002,15.64-15.64l0,0C315.765,282.414,308.763,275.412,300.125,275.412z"/>
<path style="fill:#878586;" d="M216.603,291.052L216.603,291.052c0-8.638,7.002-15.64,15.64-15.64l33.941-12.03l-10.186-3.61
	l-44.127,15.64c-8.638,0-15.64,7.003-15.64,15.64l0,0c0,8.638,7.002,15.64,15.64,15.64h20.372
	C223.606,306.692,216.603,299.69,216.603,291.052z"/>
<path style="fill:#BAB8B9;" d="M300.125,244.132h-88.254c-8.638,0-15.64,7.002-15.64,15.64l0,0c0,8.638,7.002,15.64,15.64,15.64
	h88.254c8.638,0,15.64-7.002,15.64-15.64l0,0C315.765,251.135,308.763,244.132,300.125,244.132z"/>
<path style="fill:#A19FA0;" d="M216.604,259.771L216.604,259.771c0-8.638,7.002-15.64,15.64-15.64h-20.372
	c-8.638,0-15.64,7.002-15.64,15.64l0,0c0,8.638,7.002,15.64,15.64,15.64h20.372C223.606,275.412,216.604,268.409,216.604,259.771z"
	/>
<g>
	<path style="fill:#3A484A;" d="M212.538,155.483c-4.22,0-7.64-3.42-7.64-7.64v-7.866c0-4.219,3.419-7.64,7.64-7.64
		s7.64,3.421,7.64,7.64v7.866C220.177,152.062,216.757,155.483,212.538,155.483z"/>
	<path style="fill:#3A484A;" d="M299.459,155.483c-4.22,0-7.64-3.42-7.64-7.64v-7.866c0-4.219,3.419-7.64,7.64-7.64
		s7.64,3.421,7.64,7.64v7.866C307.099,152.062,303.678,155.483,299.459,155.483z"/>
	<path style="fill:#3A484A;" d="M255.999,161.296c-7.341,0-14.241-3.077-18.932-8.443c-2.777-3.177-2.452-8.002,0.725-10.78
		c3.177-2.778,8.002-2.452,10.78,0.724c1.788,2.045,4.495,3.219,7.427,3.219c2.932,0,5.639-1.173,7.428-3.219
		c2.777-3.177,7.603-3.501,10.78-0.723c3.176,2.777,3.501,7.603,0.723,10.78C270.239,158.219,263.34,161.296,255.999,161.296z"/>
</g>
<path style="fill:#EBAF03;" d="M255.999,35.949c-4.22,0-7.64-3.42-7.64-7.64V7.64c0-4.219,3.419-7.64,7.64-7.64s7.64,3.42,7.64,7.64
	v20.67C263.639,32.528,260.218,35.949,255.999,35.949z"/>
<path style="fill:#FFCD38;" d="M167.365,72.662c-1.955,0-3.91-0.746-5.403-2.238l-14.616-14.616c-2.984-2.984-2.984-7.821,0-10.803
	c2.985-2.984,7.821-2.984,10.804,0l14.616,14.616c2.984,2.984,2.984,7.821,0,10.803C171.275,71.916,169.319,72.662,167.365,72.662z"
	/>
<path style="fill:#EBAF03;" d="M130.652,161.296h-20.67c-4.22,0-7.64-3.42-7.64-7.64c0-4.219,3.419-7.64,7.64-7.64h20.67
	c4.22,0,7.64,3.42,7.64,7.64C138.291,157.876,134.872,161.296,130.652,161.296z"/>
<path style="fill:#FFCD38;" d="M344.631,72.662c-1.955,0-3.91-0.746-5.403-2.238c-2.983-2.984-2.983-7.821,0-10.803l14.616-14.616
	c2.985-2.984,7.821-2.984,10.804,0c2.983,2.984,2.983,7.821,0,10.803l-14.615,14.617C348.542,71.916,346.586,72.662,344.631,72.662z
	"/>
<path style="fill:#EBAF03;" d="M402.015,161.296h-20.67c-4.22,0-7.64-3.42-7.64-7.64c0-4.219,3.419-7.64,7.64-7.64h20.67
	c4.22,0,7.64,3.42,7.64,7.64C409.654,157.876,406.235,161.296,402.015,161.296z"/>
<g>
</g>
<g>
</g>
<g>
</g>
<g>
</g>
<g>
</g>
<g>
</g>
<g>
</g>
<g>
</g>
<g>
</g>
<g>
</g>
<g>
</g>
<g>
</g>
<g>
</g>
<g>
</g>
<g>
</g>
</svg>
