<?xml version="1.0" encoding="iso-8859-1"?>
<!-- Generator: Adobe Illustrator 19.0.0, SVG Export Plug-In . SVG Version: 6.00 Build 0)  -->
<svg version="1.1" id="Capa_1" xmlns="http://www.w3.org/2000/svg" xmlns:xlink="http://www.w3.org/1999/xlink" x="0px" y="0px"
	 viewBox="0 0 511.997 511.997" style="enable-background:new 0 0 511.997 511.997;" xml:space="preserve">
<path style="fill:#49C3E0;" d="M460.337,263.724h-0.001l-8.769-7.725l8.769-7.727h0.001
	c-3.887-104.584-86.301-189.084-190.013-196.263L256,58.516l-14.317-6.508c-47.611,3.293-90.729,22.891-123.831,53.237l0.108,10.987
	h-11.221l-0.001-0.01c-32.618,34.812-53.18,81.044-55.076,132.052l0.001-0.002l6.82,7.98l-6.82,7.473
	C55.55,368.312,137.97,452.816,241.685,459.99l-0.003-0.003L256,451.016l14.325,8.971c47.608-3.296,90.723-22.892,123.824-53.236
	v-12.773l11.112,1.787v0.011C437.878,360.965,458.442,314.732,460.337,263.724z"/>
<g>
	<path style="fill:#00A5C6;" d="M258.213,57.512c7.683-1.902,15.537-3.372,23.535-4.377c-0.029-0.004-0.059-0.008-0.088-0.011
		c-1.744-0.218-3.494-0.414-5.251-0.591c-0.159-0.015-0.317-0.034-0.476-0.049c-1.861-0.182-3.727-0.343-5.602-0.472
		c-0.002,0-0.004,0-0.006,0L258.213,57.512z"/>
	<path style="fill:#00A5C6;" d="M252.757,453.048c-31.506-8.735-59.957-24.814-83.397-46.284
		c-43.856-40.17-68.365-99.101-66.188-158.491c1.896-51.007,22.458-97.24,55.077-132.041c26.18-27.932,60.103-48.259,97.14-57.993
		l-13.707-6.231c-3.628,0.251-7.228,0.608-10.801,1.047c-30.603,3.752-60.174,14.51-86.038,31.295
		c-0.122,0.079-0.246,0.155-0.368,0.235c-9.421,6.142-18.335,13.062-26.625,20.661l0.108,10.987c0,0-11.221,0-11.222-0.01
		c-32.616,34.812-53.178,81.044-55.072,132.05l6.82,7.98l-6.82,7.473c0.06,1.614,0.139,3.223,0.237,4.828
		c2.807,46.334,22.015,91.206,53.277,125.478c23.65,25.928,54.462,45.793,88.037,56.62c15.639,5.043,32.068,8.233,48.468,9.337
		L252.757,453.048z"/>
	<path style="fill:#00A5C6;" d="M276.449,459.46c1.771-0.178,3.537-0.375,5.294-0.596c-6.172-0.776-12.255-1.837-18.243-3.15
		l6.825,4.273c1.84-0.128,3.673-0.284,5.498-0.464C276.032,459.503,276.24,459.48,276.449,459.46z"/>
</g>
<path style="fill:#EFEDEE;" d="M345.385,146.609c20.868-7.274,40.625-17.15,58.834-29.521c0.379-0.258,0.722-0.548,1.04-0.858
	c-3.564-3.804-7.268-7.476-11.112-10.999c-17.184,11.497-35.818,20.663-55.508,27.367c-0.05-0.098-0.1-0.197-0.151-0.296
	c-16.935-32.456-40.361-59.978-68.163-80.293c-4.734-0.328-9.509-0.507-14.326-0.507c-4.815,0-9.587,0.179-14.318,0.507
	c-27.801,20.315-51.229,47.837-68.164,80.293c-0.052,0.099-0.101,0.199-0.152,0.298c-19.692-6.703-38.328-15.871-55.513-27.368
	c-3.844,3.523-7.547,7.195-11.112,11c0.317,0.308,0.659,0.599,1.038,0.855c18.211,12.372,37.969,22.251,58.842,29.525
	c-13.967,31.462-21.743,66.184-22.731,101.66H51.664c-0.096,2.565-0.16,5.138-0.16,7.726s0.065,5.161,0.16,7.726h92.225
	c1.006,35.868,8.997,70.483,22.828,101.626c-20.908,7.277-40.7,17.167-58.939,29.558c-0.378,0.258-0.721,0.547-1.038,0.855
	c3.564,3.804,7.269,7.476,11.112,11c17.212-11.515,35.88-20.692,55.606-27.399c16.698,32.168,39.915,59.938,68.225,80.622
	c4.732,0.328,9.503,0.507,14.318,0.507c4.817,0,9.591-0.179,14.325-0.507c28.307-20.684,51.525-48.453,68.223-80.62
	c19.724,6.706,38.39,15.883,55.601,27.398c3.844-3.523,7.547-7.195,11.112-10.999c-0.318-0.309-0.661-0.6-1.04-0.858
	c-18.236-12.39-38.026-22.278-58.93-29.555c13.831-31.143,21.822-65.76,22.829-101.628h92.22c0.096-2.565,0.16-5.138,0.16-7.726
	s-0.065-5.161-0.16-7.726h-92.219C367.129,212.795,359.353,178.072,345.385,146.609z M248.274,445.665
	c-24.51-18.508-44.781-42.839-59.768-70.871c19.182-5.178,39.218-8.113,59.768-8.701V445.665z M248.274,350.634
	c-22.97,0.621-45.354,4.007-66.723,10.041c-13.398-29.6-21.189-62.641-22.206-96.951h88.928V350.634z M248.274,248.272h-88.928
	c1.017-34.31,8.808-67.35,22.206-96.95c21.368,6.034,43.752,9.42,66.722,10.041v86.909H248.274z M248.274,145.905
	c-20.55-0.588-40.586-3.523-59.767-8.701c14.986-28.032,35.258-52.364,59.767-70.871V145.905z M263.726,66.328
	c24.512,18.508,44.784,42.84,59.771,70.873c-19.183,5.179-39.22,8.114-59.771,8.702L263.726,66.328L263.726,66.328z
	 M263.726,445.669v-79.576c20.551,0.588,40.589,3.523,59.772,8.703C308.511,402.829,288.238,427.16,263.726,445.669z
	 M330.453,360.678c-21.37-6.035-43.755-9.422-66.727-10.043v-86.91h88.933C351.642,298.035,343.852,331.077,330.453,360.678z
	 M263.726,248.272v-86.91c22.972-0.621,45.357-4.008,66.726-10.043c13.399,29.6,21.19,62.642,22.207,96.952h-88.932V248.272z"/>
<path style="fill:#333E40;" d="M220.338,414.488c0-57.263-48.15-103.849-107.335-103.849C53.82,310.639,5.67,357.226,5.67,414.488
	v38.373c0,13.507,10.95,24.456,24.456,24.456h165.755c13.507,0,24.457-10.95,24.457-24.456V414.488z"/>
<path style="fill:#283234;" d="M36.577,452.861v-38.373c0-52.186,39.993-95.498,91.881-102.769
	c-5.048-0.708-10.206-1.081-15.453-1.081c-59.184,0-107.334,46.587-107.334,103.849v38.373c0,13.507,10.95,24.456,24.456,24.456
	h30.905C47.525,477.317,36.577,466.368,36.577,452.861z"/>
<circle style="fill:#E6B09C;" cx="203.358" cy="414.491" r="22.651"/>
<path style="fill:#C76D5F;" d="M506.33,114.488c0-57.263-48.15-103.849-107.335-103.849c-59.184,0-107.334,46.587-107.334,103.849
	H506.33z"/>
<path style="fill:#AF4E42;" d="M414.448,11.719c-5.048-0.708-10.206-1.081-15.453-1.081c-59.184,0-107.334,46.587-107.334,103.849
	h30.905C322.567,62.302,362.56,18.99,414.448,11.719z"/>
<circle style="fill:#E6B09C;" cx="489.346" cy="114.492" r="22.651"/>
<path style="fill:#FFC4B0;" d="M203.357,414.076c-0.183-37.844-39.662-63.103-74.129-47.473c-2.603,1.181-4.962,2.408-7.026,3.574
	c-5.712,3.231-12.685,3.231-18.398,0c-2.062-1.166-4.423-2.393-7.026-3.574c-34.467-15.629-73.945,9.629-74.129,47.474
	c-0.001,0.137-0.001,0.275-0.001,0.412c0,47.977,40.453,86.869,90.354,86.869s90.354-38.892,90.354-86.869
	C203.358,414.351,203.358,414.213,203.357,414.076z"/>
<path style="fill:#E6B09C;" d="M90.412,498.619c-28.769-22.459-47.158-56.73-47.158-95.136c0-0.194,0-0.387,0.001-0.58
	c0.064-13.263,3.553-25.427,9.503-35.884c-10.952,5.204-20.068,14.104-25.307,25.383c-1.48-0.365-3.077-0.564-4.802-0.564
	C10.141,391.838,0,401.979,0,414.488c0,12.511,10.141,22.651,22.651,22.651c1.064,0,2.079-0.079,3.05-0.221
	C34.069,467.102,58.912,490.823,90.412,498.619z"/>
<g>
	<path style="fill:#3A484A;" d="M69.022,425.893c-4.267,0-7.726-3.459-7.726-7.726v-7.275c0-4.267,3.459-7.726,7.726-7.726
		c4.267,0,7.726,3.459,7.726,7.726v7.275C76.748,422.434,73.289,425.893,69.022,425.893z"/>
	<path style="fill:#3A484A;" d="M158.648,425.893c-4.267,0-7.726-3.459-7.726-7.726v-7.275c0-4.267,3.459-7.726,7.726-7.726
		c4.267,0,7.726,3.459,7.726,7.726v7.275C166.374,422.434,162.915,425.893,158.648,425.893z"/>
	<path style="fill:#3A484A;" d="M113.005,431.27c-6.981,0-13.544-2.929-18.007-8.034c-2.808-3.213-2.481-8.094,0.731-10.902
		c3.212-2.808,8.094-2.481,10.902,0.731c1.529,1.749,3.852,2.752,6.374,2.752c2.521,0,4.844-1.003,6.373-2.752
		c2.808-3.213,7.688-3.541,10.902-0.731c3.213,2.808,3.541,7.689,0.731,10.902C126.547,428.341,119.984,431.27,113.005,431.27z"/>
</g>
<path style="fill:#FFC4B0;" d="M489.348,114.076c-0.183-37.844-39.662-63.103-74.129-47.473c-2.603,1.181-4.962,2.408-7.026,3.574
	c-5.712,3.231-12.685,3.231-18.398,0c-2.062-1.166-4.423-2.393-7.026-3.574c-34.467-15.629-73.945,9.629-74.129,47.474
	c-0.001,0.137-0.001,0.274-0.001,0.412c0,47.977,40.453,86.869,90.354,86.869s90.354-38.892,90.354-86.869
	C489.349,114.351,489.349,114.213,489.348,114.076z"/>
<path style="fill:#E6B09C;" d="M391.894,201.091c-37.081-17.299-62.648-53.842-62.648-96.13c0-0.169,0-0.338,0.001-0.506
	c0.073-15.083,5.227-28.535,13.599-39.18c-12.747,4.802-23.506,14.447-29.389,27.088c-1.48-0.334-3.075-0.524-4.815-0.524
	c-12.509,0-22.651,10.141-22.651,22.651c0,12.511,10.141,22.651,22.651,22.651c1.07,0,2.087-0.089,3.059-0.247
	C321.394,171.885,353.216,198.2,391.894,201.091z"/>
<g>
	<path style="fill:#3A484A;" d="M355.412,125.893c-4.267,0-7.726-3.459-7.726-7.726v-7.275c0-4.267,3.459-7.726,7.726-7.726
		c4.267,0,7.726,3.459,7.726,7.726v7.275C363.139,122.434,359.679,125.893,355.412,125.893z"/>
	<path style="fill:#3A484A;" d="M445.038,125.893c-4.268,0-7.726-3.459-7.726-7.726v-7.275c0-4.267,3.458-7.726,7.726-7.726
		c4.268,0,7.726,3.459,7.726,7.726v7.275C452.765,122.434,449.306,125.893,445.038,125.893z"/>
	<path style="fill:#3A484A;" d="M398.995,131.27c-6.98,0-13.544-2.929-18.007-8.034c-2.808-3.213-2.48-8.094,0.732-10.902
		c3.211-2.807,8.093-2.481,10.902,0.732c1.528,1.748,3.851,2.752,6.373,2.752s4.844-1.002,6.373-2.752
		c2.808-3.213,7.69-3.541,10.902-0.732c3.213,2.808,3.542,7.689,0.732,10.902C412.539,128.341,405.977,131.27,398.995,131.27z"/>
</g>
<g>
	<path style="fill:#D4D2D3;" d="M106.739,116.232c0.317,0.308,0.659,0.599,1.038,0.855c10.773,7.318,22.091,13.757,33.857,19.309
		l9.782-12.489l-0.003-0.005c-11.682-5.306-22.902-11.538-33.562-18.669C114.008,108.755,110.304,112.427,106.739,116.232z"/>
	<path style="fill:#D4D2D3;" d="M103.209,263.724l-0.037-15.452l-0.003-0.001H51.664c-0.096,2.565-0.16,5.138-0.16,7.726
		s0.065,5.161,0.16,7.726h48.627H103.209z"/>
</g>
<g>
</g>
<g>
</g>
<g>
</g>
<g>
</g>
<g>
</g>
<g>
</g>
<g>
</g>
<g>
</g>
<g>
</g>
<g>
</g>
<g>
</g>
<g>
</g>
<g>
</g>
<g>
</g>
<g>
</g>
</svg>
