<svg height="512pt" viewBox="0 0 512.00113 512" width="512pt" xmlns="http://www.w3.org/2000/svg"><path d="m355.574219 483.8125h-227.335938c-70.824219 0-128.238281-57.414062-128.238281-128.238281v-227.335938c0-70.824219 57.414062-128.238281 128.238281-128.238281h227.335938c70.824219 0 128.238281 57.414062 128.238281 128.238281v227.335938c0 70.824219-57.414062 128.238281-128.238281 128.238281zm0 0" fill="#fcf2d0"/><path d="m355.574219 483.8125h-227.335938c-70.824219 0-128.238281-57.414062-128.238281-128.238281v-227.335938c0-70.824219 57.414062-128.238281 128.238281-128.238281h227.335938c70.824219 0 128.238281 57.414062 128.238281 128.238281v227.335938c0 70.824219-57.414062 128.238281-128.238281 128.238281zm0 0" fill="#fcf2d0"/><path d="m185.855469 0h-57.617188c-70.824219 0-128.238281 57.414062-128.238281 128.238281v227.335938c0 70.824219 57.414062 128.238281 128.238281 128.238281h227.335938c1.488281 0 2.960937-.0625 4.4375-.113281-155.792969-105.109375-211.945313-328.523438-174.15625-483.699219zm0 0" fill="#f6e3a3"/><path d="m.0273438 125.953125h483.7539062c-1.21875-69.769531-58.148438-125.953125-128.207031-125.953125h-227.335938c-70.058593 0-126.988281 56.183594-128.2109372 125.953125zm0 0" fill="#a3defe"/><path d="m128.238281 0c-70.058593 0-126.988281 56.183594-128.2109372 125.953125h175.1757812c-2.351563-44.300781 1.226563-87.25 10.648437-125.953125zm0 0" fill="#7acefa"/><path d="m199.460938 85.007812c0 14.542969-14.800782 26.328126-33.058594 26.328126-18.261719 0-33.0625-11.785157-33.0625-26.328126 0-14.539062 14.800781-26.328124 33.0625-26.328124 18.257812 0 33.058594 11.789062 33.058594 26.328124zm0 0" fill="#fff"/><path d="m312.539062 85.007812c0 14.542969 14.800782 26.328126 33.058594 26.328126 18.261719 0 33.0625-11.785157 33.0625-26.328126 0-14.539062-14.800781-26.328124-33.0625-26.328124-18.257812 0-33.058594 11.789062-33.058594 26.328124zm0 0" fill="#fff"/><g fill="#4e5660"><path d="m171.929688 61.421875c-4.144532 0-7.5-3.355469-7.5-7.5v-14.1875c0-4.144531 3.355468-7.5 7.5-7.5 4.140624 0 7.5 3.355469 7.5 7.5v14.1875c0 4.144531-3.359376 7.5-7.5 7.5zm0 0"/><path d="m282.65625 64.78125c0-16.472656-11.933594-18.019531-26.65625-18.019531s-26.65625 1.546875-26.65625 18.019531 11.933594 29.828125 26.65625 29.828125 26.65625-13.355469 26.65625-29.828125zm0 0"/><path d="m340.070312 61.421875c-4.140624 0-7.5-3.355469-7.5-7.5v-14.1875c0-4.144531 3.359376-7.5 7.5-7.5 4.144532 0 7.5 3.355469 7.5 7.5v14.1875c0 4.144531-3.355468 7.5-7.5 7.5zm0 0"/></g><path d="m56.988281 354.257812c-1.917969 0-3.839843-.730468-5.304687-2.195312-2.929688-2.929688-2.929688-7.675781 0-10.605469l31.789062-31.789062c2.929688-2.929688 7.679688-2.929688 10.605469 0 2.929687 2.929687 2.929687 7.675781 0 10.605469l-31.789063 31.789062c-1.460937 1.464844-3.382812 2.195312-5.300781 2.195312zm0 0" fill="#fcf2d0"/><path d="m67.957031 285.191406c-1.917969 0-3.839843-.730468-5.304687-2.195312-2.925782-2.929688-2.925782-7.679688.003906-10.609375l26.644531-26.644531c2.929688-2.929688 7.679688-2.929688 10.609375 0 2.929688 2.929687 2.929688 7.679687-.003906 10.605468l-26.644531 26.648438c-1.464844 1.464844-3.382813 2.195312-5.304688 2.195312zm0 0" fill="#fcf2d0"/><path d="m173.550781 482.15625c-39.792969-39.796875-39.792969-104.546875 0-144.339844l148.378907-148.378906c26.769531-26.773438 70.332031-26.773438 97.105468 0 26.769532 26.773438 26.773438 70.332031 0 97.105469l-119.316406 119.316406c-6.25 6.25-16.386719 6.25-22.636719 0-6.253906-6.253906-6.253906-16.386719 0-22.640625l119.316407-119.316406c14.289062-14.285156 14.285156-37.535156-.003907-51.824219-14.289062-14.289063-37.535156-14.289063-51.824219-.003906l-148.378906 148.378906c-27.3125 27.3125-27.3125 71.75 0 99.0625 27.308594 27.308594 71.75 27.308594 99.058594 0l154.425781-154.425781c40.429688-40.429688 40.429688-106.21875 0-146.648438-40.433593-40.433594-106.222656-40.433594-146.652343 0l-125.359376 125.359375c-6.253906 6.253907-16.386718 6.253907-22.640624 0-6.25-6.25-6.25-16.386719 0-22.636719l125.363281-125.363281c52.914062-52.914062 139.011719-52.914062 191.925781 0 52.917969 52.917969 52.917969 139.015625.003906 191.929688l-154.425781 154.425781c-39.792969 39.792969-104.542969 39.792969-144.339844 0zm0 0" fill="#8eafe2"/><path d="m295.25 459.515625c-27.308594 27.308594-71.75 27.308594-99.058594 0-27.3125-27.3125-27.3125-71.75 0-99.0625l69.679688-69.679687c-4.285156-11.359376-7.683594-23.117188-10.214844-35.0625l-82.105469 82.101562c-39.792969 39.796875-39.792969 104.546875 0 144.339844 39.796875 39.796875 104.546875 39.796875 144.339844 0l76.621094-76.621094c-12.359375-2.386719-23.902344-5.984375-34.640625-10.640625zm0 0" fill="#6a96d7"/><path d="m177.664062 283.800781 72.59375-72.59375c-.546874-16.371093.46875-32.640625 3.03125-48.308593l-98.265624 98.265624c-6.25 6.25-6.25 16.386719 0 22.636719 6.253906 6.253907 16.386718 6.253907 22.640624 0zm0 0" fill="#6a96d7"/><path d="m299.71875 405.859375 28.945312-28.945313c-8.664062-6.402343-16.601562-13.601562-23.808593-21.46875l-27.773438 27.773438c-6.253906 6.253906-6.253906 16.390625 0 22.640625 6.25 6.25 16.386719 6.25 22.636719 0zm0 0" fill="#6a96d7"/></svg>