<svg height="511pt" viewBox="0 0 511 511.99705" width="511pt" xmlns="http://www.w3.org/2000/svg"><path d="m466.917969 45.578125c-60.769531-60.769531-159.292969-60.769531-220.0625 0-60.769531 60.765625-60.769531 159.292969 0 220.058594 60.769531 60.769531 159.292969 60.769531 220.0625 0 60.769531-60.765625 60.769531-159.292969 0-220.058594zm0 0" fill="#a3defe"/><path d="m267.785156 28.027344c-40.203125 28.136718-66.503906 74.78125-66.503906 127.578125 0 85.941406 69.667969 155.609375 155.609375 155.609375 54.035156 0 101.628906-27.542969 129.527344-69.355469-196.878907 42.285156-252.238281-137.386719-218.632813-213.832031zm0 0" fill="#7acefa"/><path d="m298.902344 165.324219c0-14.914063-15.179688-27.003907-33.90625-27.003907-18.726563 0-33.90625 12.089844-33.90625 27.003907 0 14.910156 15.179687 27 33.90625 27 18.726562 0 33.90625-12.089844 33.90625-27zm0 0" fill="#fff"/><path d="m482.691406 165.324219c0-14.914063-15.179687-27.003907-33.90625-27.003907-18.726562 0-33.910156 12.089844-33.910156 27.003907 0 14.910156 15.183594 27 33.910156 27 18.726563 0 33.90625-12.089844 33.90625-27zm0 0" fill="#fff"/><g fill="#4e5660"><path d="m270.664062 140.941406c-4.140624 0-7.5-3.359375-7.5-7.5v-14.554687c0-4.140625 3.359376-7.5 7.5-7.5 4.140626 0 7.5 3.359375 7.5 7.5v14.554687c0 4.140625-3.359374 7.5-7.5 7.5zm0 0"/><path d="m384.226562 144.578125c0-16.894531-12.238281-18.484375-27.335937-18.484375s-27.335937 1.589844-27.335937 18.484375 12.238281 30.589844 27.335937 30.589844 27.335937-13.695313 27.335937-30.589844zm0 0"/><path d="m443.117188 140.941406c-4.144532 0-7.5-3.359375-7.5-7.5v-14.554687c0-4.140625 3.355468-7.5 7.5-7.5 4.140624 0 7.5 3.359375 7.5 7.5v14.554687c0 4.140625-3.359376 7.5-7.5 7.5zm0 0"/></g><path d="m297.578125 282.066406 10.296875-54.660156c2.539062-13.496094-9.289062-25.328125-22.789062-22.785156l-54.660157 10.296875c-4.183593.785156-8.519531.355469-12.421875-1.339844-19.53125-8.476563-41.140625-13.066406-63.855468-12.785156-85.511719 1.050781-153.648438 70.074219-153.648438 155.59375 0 85.941406 69.667969 155.609375 155.609375 155.609375 85.515625 0 154.539063-68.132813 155.59375-153.644532.28125-22.714843-4.308594-44.328124-12.785156-63.859374-1.695313-3.902344-2.125-8.242188-1.339844-12.425782zm0 0" fill="#fcf2d0"/><path d="m110.003906 207.664062c-63.664062 19.546876-109.503906 78.582032-109.503906 148.722657 0 85.941406 69.667969 155.609375 155.609375 155.609375 56.714844 0 106.167969-29.972656 133.359375-75.105469-200.726562 54.242187-241.597656-157.25-179.464844-229.226563zm0 0" fill="#f6e3a3"/><path d="m156.109375 286.148438c9.234375 0 16.722656-7.488282 16.722656-16.722657v-4.644531c0-9.234375-7.488281-16.722656-16.722656-16.722656-9.238281 0-16.726563 7.488281-16.726563 16.722656v4.644531c0 9.234375 7.488282 16.722657 16.726563 16.722657zm35.21875 130.695312h-18.5v-92.164062c0-9.238282-7.484375-16.722657-16.722656-16.722657h-24.839844c-9.234375 0-16.722656 7.484375-16.722656 16.722657 0 9.234374 7.488281 16.722656 16.722656 16.722656h8.117187v75.441406h-18.496093c-9.234375 0-16.722657 7.488281-16.722657 16.722656 0 9.238282 7.488282 16.722656 16.722657 16.722656h70.441406c9.238281 0 16.722656-7.484374 16.722656-16.722656 0-9.238281-7.484375-16.722656-16.722656-16.722656zm0 0" fill="#4e5660"/><path d="m156.109375 286.148438c9.234375 0 16.722656-7.488282 16.722656-16.722657v-4.644531c0-9.234375-7.488281-16.722656-16.722656-16.722656-9.238281 0-16.726563 7.488281-16.726563 16.722656v4.644531c0 9.234375 7.488282 16.722657 16.726563 16.722657zm35.21875 130.695312h-18.5v-92.164062c0-9.238282-7.484375-16.722657-16.722656-16.722657h-24.839844c-9.234375 0-16.722656 7.484375-16.722656 16.722657 0 9.234374 7.488281 16.722656 16.722656 16.722656h8.117187v75.441406h-18.496093c-9.234375 0-16.722657 7.488281-16.722657 16.722656 0 9.238282 7.488282 16.722656 16.722657 16.722656h70.441406c9.238281 0 16.722656-7.484374 16.722656-16.722656 0-9.238281-7.484375-16.722656-16.722656-16.722656zm0 0" fill="#4e5660"/><path d="m156.109375 286.148438c9.234375 0 16.722656-7.488282 16.722656-16.722657v-4.644531c0-9.234375-7.488281-16.722656-16.722656-16.722656-9.238281 0-16.726563 7.488281-16.726563 16.722656v4.644531c0 9.234375 7.488282 16.722657 16.726563 16.722657zm35.21875 130.695312h-18.5v-92.164062c0-9.238282-7.484375-16.722657-16.722656-16.722657h-24.839844c-9.234375 0-16.722656 7.484375-16.722656 16.722657 0 9.234374 7.488281 16.722656 16.722656 16.722656h8.117187v75.441406h-18.496093c-9.234375 0-16.722657 7.488281-16.722657 16.722656 0 9.238282 7.488282 16.722656 16.722657 16.722656h70.441406c9.238281 0 16.722656-7.484374 16.722656-16.722656 0-9.238281-7.484375-16.722656-16.722656-16.722656zm0 0" fill="#4e5660"/><path d="m204.339844 444.058594c-26.265625-3.695313-47.949219-13.480469-65.335938-27.214844h-18.121094c-9.234374 0-16.71875 7.484375-16.71875 16.722656 0 9.234375 7.484376 16.722656 16.71875 16.722656h70.445313c5.261719 0 9.949219-2.433593 13.011719-6.230468zm0 0" fill="#383c43"/></svg>