<?xml version="1.0" encoding="iso-8859-1"?>
<!-- Generator: Adobe Illustrator 19.0.0, SVG Export Plug-In . SVG Version: 6.00 Build 0)  -->
<svg version="1.1" id="Capa_1" xmlns="http://www.w3.org/2000/svg" xmlns:xlink="http://www.w3.org/1999/xlink" x="0px" y="0px"
	 viewBox="0 0 512 512" style="enable-background:new 0 0 512 512;" xml:space="preserve">
<path style="fill:#FB8D4B;" d="M89.766,488.732C94.709,502.306,107.728,512,123.012,512c15.286,0,28.306-9.696,33.248-23.273v0.005
	C161.203,502.306,174.222,512,189.506,512c15.286,0,28.306-9.696,33.248-23.273v0.005C227.697,502.306,240.716,512,256,512
	c15.286,0,28.306-9.696,33.248-23.273v0.005C294.191,502.306,307.21,512,322.494,512c15.286,0,28.306-9.696,33.248-23.273v0.005
	C360.685,502.306,373.704,512,388.988,512c15.286,0,28.306-9.696,33.248-23.273h0.003c13.575-4.943,23.268-17.962,23.268-33.246
	c0-15.286-9.696-28.306-23.273-33.248h0.005c13.575-4.943,23.268-17.962,23.268-33.246c0-15.286-9.696-28.306-23.273-33.248h0.005
	c13.575-4.943,23.268-17.962,23.268-33.246c0-15.286-9.696-28.306-23.273-33.248h0.005c13.575-4.943,23.268-17.962,23.268-33.246
	c0-15.286-9.696-28.306-23.273-33.248h0.005c13.575-4.943,23.268-17.962,23.268-33.246c0-15.286-9.696-28.306-23.273-33.248h0.005
	c13.575-4.943,23.268-17.962,23.268-33.246c0-15.286-9.696-28.306-23.273-33.248h0.005c13.575-4.943,23.268-17.962,23.268-33.246
	c0-15.286-9.696-28.306-23.273-33.248l0.002,0.005C417.294,9.696,404.274,0,388.988,0c-15.284,0-28.303,9.694-33.246,23.268v0.005
	C350.8,9.696,337.78,0,322.494,0c-15.284,0-28.303,9.694-33.246,23.268v0.005C284.306,9.696,271.286,0,256,0
	c-15.284,0-28.303,9.694-33.246,23.268v0.005C217.812,9.696,204.792,0,189.506,0c-15.284,0-28.303,9.694-33.246,23.268v0.005
	C151.318,9.696,138.298,0,123.012,0c-15.284,0-28.303,9.694-33.246,23.268c-13.577,4.942-23.273,17.963-23.273,33.248
	c0,15.284,9.694,28.303,23.268,33.246h0.005c-13.577,4.942-23.273,17.962-23.273,33.248c0,15.284,9.694,28.303,23.268,33.246h0.005
	c-13.577,4.942-23.273,17.962-23.273,33.248c0,15.284,9.694,28.303,23.268,33.246h0.005c-13.577,4.942-23.273,17.962-23.273,33.248
	c0,15.284,9.694,28.303,23.268,33.246h0.005c-13.577,4.942-23.273,17.962-23.273,33.248c0,15.284,9.694,28.303,23.268,33.246h0.005
	c-13.577,4.942-23.273,17.962-23.273,33.248c0,15.284,9.694,28.303,23.268,33.246h0.005c-13.577,4.942-23.273,17.962-23.273,33.248
	c0,15.284,9.694,28.303,23.268,33.246L89.766,488.732z"/>
<path style="fill:#E86D24;" d="M126.806,488.732l-0.005-0.005c-13.575-4.943-23.268-17.962-23.268-33.246
	c0-15.286,9.696-28.306,23.273-33.248h-0.005c-13.575-4.943-23.268-17.962-23.268-33.246c0-15.286,9.696-28.306,23.273-33.248
	h-0.005c-13.575-4.943-23.268-17.962-23.268-33.246c0-15.286,9.696-28.306,23.273-33.248h-0.005
	c-13.575-4.943-23.268-17.962-23.268-33.246c0-15.286,9.696-28.306,23.273-33.248h-0.005c-13.575-4.943-23.268-17.962-23.268-33.246
	c0-15.286,9.696-28.306,23.273-33.248h-0.005c-13.575-4.943-23.268-17.962-23.268-33.246c0-15.286,9.696-28.306,23.273-33.248
	h-0.005c-13.574-4.944-23.268-17.963-23.268-33.247c0-15.286,9.696-28.306,23.273-33.248c2.746-7.542,7.991-13.877,14.725-18.026
	C136.144,1.922,129.804,0,123.012,0c-15.284,0-28.303,9.694-33.246,23.268c-13.578,4.942-23.273,17.963-23.273,33.248
	c0,15.284,9.694,28.303,23.268,33.246h0.005c-13.577,4.942-23.273,17.962-23.273,33.248c0,15.284,9.694,28.303,23.268,33.246h0.005
	c-13.577,4.942-23.273,17.962-23.273,33.248c0,15.284,9.694,28.303,23.268,33.246h0.005c-13.577,4.942-23.273,17.962-23.273,33.248
	c0,15.284,9.694,28.303,23.268,33.246h0.005c-13.577,4.942-23.273,17.962-23.273,33.248c0,15.284,9.694,28.303,23.268,33.246h0.005
	c-13.577,4.942-23.273,17.962-23.273,33.248c0,15.284,9.694,28.303,23.268,33.246h0.005c-13.577,4.942-23.273,17.962-23.273,33.248
	c0,15.284,9.694,28.303,23.268,33.246l0.005,0.005C94.709,502.306,107.728,512,123.012,512c6.793,0,13.133-1.922,18.521-5.242
	C134.797,502.609,129.552,496.273,126.806,488.732z"/>
<g>
	<path style="fill:#3B484A;" d="M180.647,173.506c-4.267,0-7.726-3.459-7.726-7.726v-13.638c0-4.267,3.459-7.726,7.726-7.726
		s7.726,3.459,7.726,7.726v13.638C188.374,170.047,184.915,173.506,180.647,173.506z"/>
	<path style="fill:#3B484A;" d="M331.353,173.506c-4.267,0-7.726-3.459-7.726-7.726v-13.638c0-4.267,3.459-7.726,7.726-7.726
		c4.267,0,7.726,3.459,7.726,7.726v13.638C339.079,170.047,335.62,173.506,331.353,173.506z"/>
	<path style="fill:#3B484A;" d="M256,180.785c-9.478,0-18.376-3.962-24.415-10.869c-2.809-3.213-2.481-8.093,0.731-10.902
		c3.213-2.809,8.094-2.481,10.902,0.731c3.104,3.551,7.762,5.587,12.781,5.587c5.019,0,9.678-2.037,12.781-5.587
		c2.808-3.214,7.689-3.541,10.902-0.731c3.213,2.808,3.541,7.689,0.731,10.902C274.376,176.823,265.478,180.785,256,180.785z"/>
</g>
<g>
	<circle style="fill:#FEEA61;" cx="156.258" cy="89.76" r="18.243"/>
	<circle style="fill:#FEEA61;" cx="355.742" cy="89.76" r="18.243"/>
	<circle style="fill:#FEEA61;" cx="256" cy="89.76" r="18.243"/>
	<circle style="fill:#FEEA61;" cx="156.258" cy="422.24" r="18.243"/>
	<circle style="fill:#FEEA61;" cx="355.742" cy="422.24" r="18.243"/>
	<circle style="fill:#FEEA61;" cx="256" cy="422.24" r="18.243"/>
	<circle style="fill:#FEEA61;" cx="156.258" cy="256" r="18.243"/>
	<circle style="fill:#FEEA61;" cx="355.742" cy="256" r="18.243"/>
	<circle style="fill:#FEEA61;" cx="256" cy="256" r="18.243"/>
</g>
<g>
</g>
<g>
</g>
<g>
</g>
<g>
</g>
<g>
</g>
<g>
</g>
<g>
</g>
<g>
</g>
<g>
</g>
<g>
</g>
<g>
</g>
<g>
</g>
<g>
</g>
<g>
</g>
<g>
</g>
</svg>
