<svg height="512pt" viewBox="0 0 512 512" width="512pt" xmlns="http://www.w3.org/2000/svg"><path d="m399.996094 439.414062h-287.992188c-21.769531 0-39.421875-17.648437-39.421875-39.421874v-287.988282c0-21.769531 17.652344-39.421875 39.421875-39.421875h287.992188c21.769531 0 39.421875 17.652344 39.421875 39.421875v287.992188c0 21.769531-17.652344 39.417968-39.421875 39.417968zm0 0" fill="#ccf8ff"/><path d="m112.003906 439.414062h287.992188c21.769531 0 39.421875-17.648437 39.421875-39.421874v-161.085938s-68.734375-75.929688-183.417969-75.929688c-122.816406 0-183.417969 75.167969-183.417969 75.167969v161.847657c0 21.773437 17.652344 39.421874 39.421875 39.421874zm0 0" fill="#abebf4"/><path d="m399.996094 439.414062c21.769531 0 39.421875-17.648437 39.421875-39.421874v-14.050782l-107.539063-104.390625c-10.851562-10.53125-28.105468-10.550781-38.972656-.039062l-71.078125 68.738281v89.164062zm0 0" fill="#8dc971"/><path d="m438.3125 409.300781c-23.128906.164063-54.414062-3.101562-82.570312-17.765625-36.539063-19.03125-66.253907-65.355468-81.179688-92.28125l-52.734375 50.996094v89.164062h178.167969c18.5625 0 34.132812-12.832031 38.316406-30.113281zm0 0" fill="#7fb762"/><path d="m494.632812 211.300781c-9.589843 0-17.363281-7.773437-17.363281-17.363281v-129.484375c0-16.390625-13.335937-29.722656-29.722656-29.722656h-129.484375c-9.589844 0-17.363281-7.773438-17.363281-17.363281 0-9.59375 7.773437-17.367188 17.363281-17.367188h129.484375c35.539063 0 64.453125 28.914062 64.453125 64.453125v129.484375c0 9.589844-7.773438 17.363281-17.367188 17.363281zm0 0" fill="#8ed7e8"/><path d="m193.9375 512h-129.484375c-35.539063 0-64.453125-28.917969-64.453125-64.457031v-129.480469c0-9.59375 7.773438-17.367188 17.367188-17.367188 9.589843 0 17.363281 7.773438 17.363281 17.367188v129.480469c0 16.390625 13.335937 29.722656 29.722656 29.722656h129.484375c9.589844 0 17.367188 7.777344 17.367188 17.367187 0 9.589844-7.777344 17.367188-17.367188 17.367188zm0 0" fill="#8ed7e8"/><path d="m312.410156 439.414062-117.691406-176.941406c-14.96875-22.503906-46.589844-26.125-66.261719-7.589844l-55.875 52.664063v92.449219c0 21.769531 17.652344 39.421875 39.421875 39.421875h200.40625zm0 0" fill="#b2e59c"/><path d="m371.894531 177.847656c0 21.667969-17.5625 39.230469-39.230469 39.230469-21.664062 0-39.230468-17.5625-39.230468-39.230469 0-21.664062 17.566406-39.230468 39.230468-39.230468 21.667969 0 39.230469 17.566406 39.230469 39.230468zm0 0" fill="#f4de7f"/></svg>